<svg width="310" height="45" viewBox="0 0 310 45" fill="none" xmlns="http://www.w3.org/2000/svg">
<path d="M18.558 44.9355C15.1947 44.9355 12.1117 44.1347 9.309 42.5332C6.5063 40.9316 4.24411 38.6494 2.52244 35.6865C0.840812 32.7237 0 29.1802 0 25.0562C0 20.9723 0.800772 17.4088 2.40232 14.3659C4.00387 11.2829 6.26606 8.9006 9.1889 7.21897C12.1518 5.4973 15.6351 4.63647 19.639 4.63647C21.0804 4.63647 22.5618 4.7766 24.0833 5.05687C25.6448 5.33714 27.0862 5.81761 28.4075 6.49827C29.7288 7.13889 30.7898 7.99973 31.5906 9.08077C32.4314 10.1618 32.8518 11.5031 32.8518 13.1047C32.8918 14.8263 32.3713 16.3478 31.2903 17.6691C30.2092 18.9503 28.6878 19.5909 26.7259 19.5909C25.5247 19.5909 24.6639 19.3107 24.1434 18.7501C23.6629 18.1495 23.4427 17.7091 23.4827 17.4288C23.4827 17.3087 23.723 17.1085 24.2034 16.8283C24.7239 16.508 25.2244 16.0475 25.7049 15.4469C26.2254 14.8063 26.4856 13.9655 26.4856 12.9245C26.4856 11.1227 25.8851 9.70141 24.6839 8.66036C23.4827 7.57932 21.7811 7.0388 19.579 7.0388C17.1766 7.0388 15.0145 7.71945 13.0927 9.08077C11.2109 10.4421 9.7294 12.444 8.64837 15.0866C7.56732 17.6891 7.0268 20.8922 7.0268 24.6959C7.0268 27.899 7.58734 30.8218 8.70843 33.4644C9.8696 36.0669 11.4711 38.1489 13.5131 39.7104C15.5951 41.2319 17.9974 41.9926 20.7201 41.9926C22.8822 41.9926 24.7239 41.5522 26.2454 40.6714C27.8069 39.7505 29.2083 38.2891 30.4495 36.2871C30.8098 35.6065 31.4504 35.5464 32.3713 36.1069C32.7317 36.3472 33.012 36.6475 33.2122 37.0078C33.4123 37.3281 33.3723 37.6685 33.092 38.0288C31.5706 39.9507 30.1292 41.4121 28.7678 42.4131C27.4065 43.374 25.9251 44.0346 24.3235 44.395C22.722 44.7553 20.8001 44.9355 18.558 44.9355Z" fill="#003A2B"/>
<path d="M51.4012 44.455C48.5985 44.455 46.1361 43.7944 44.0141 42.4731C41.9321 41.1518 40.3105 39.4302 39.1494 37.3081C37.9882 35.1861 37.4077 32.9239 37.4077 30.5215C37.4077 28.1592 37.8281 26.0572 38.6689 24.2154C39.5097 22.3736 40.6108 20.8321 41.9721 19.5909C43.3735 18.3497 44.8949 17.4088 46.5365 16.7682C48.1781 16.1276 49.7997 15.8073 51.4012 15.8073C54.2039 15.8073 56.6463 16.4679 58.7283 17.7892C60.8504 19.1105 62.492 20.8321 63.6531 22.9542C64.8142 25.0763 65.3948 27.3385 65.3948 29.7408C65.3948 32.1031 64.9543 34.2051 64.0735 36.0469C63.2327 37.8887 62.1116 39.4302 60.7102 40.6714C59.3489 41.9126 57.8475 42.8535 56.2059 43.4941C54.5643 44.1347 52.9627 44.455 51.4012 44.455ZM51.4012 42.2329C53.3631 42.2329 54.9046 41.6523 56.0257 40.4912C57.1868 39.3301 58.0076 37.8086 58.4881 35.9268C59.0086 34.0049 59.2688 31.9429 59.2688 29.7408C59.2688 27.6187 59.0086 25.6768 58.4881 23.9151C57.9676 22.1534 57.1268 20.732 55.9656 19.651C54.8045 18.57 53.283 18.0294 51.4012 18.0294C49.4393 18.0294 47.8778 18.61 46.7167 19.7711C45.5556 20.8922 44.7348 22.3937 44.2543 24.2755C43.7738 26.1173 43.5336 28.1592 43.5336 30.4014C43.5336 32.4834 43.7738 34.4253 44.2543 36.2271C44.7748 38.0288 45.6156 39.4902 46.7767 40.6113C47.9379 41.6924 49.4794 42.2329 51.4012 42.2329Z" fill="#003A2B"/>
<path d="M84.3041 44.455C81.5014 44.455 79.039 43.7944 76.9169 42.4731C74.8349 41.1518 73.2133 39.4302 72.0522 37.3081C70.8911 35.1861 70.3105 32.9239 70.3105 30.5215C70.3105 28.1592 70.7309 26.0572 71.5717 24.2154C72.4126 22.3736 73.5136 20.8321 74.8749 19.5909C76.2763 18.3497 77.7978 17.4088 79.4394 16.7682C81.0809 16.1276 82.7025 15.8073 84.3041 15.8073C87.1068 15.8073 89.5491 16.4679 91.6312 17.7892C93.7532 19.1105 95.3948 20.8321 96.5559 22.9542C97.7171 25.0763 98.2976 27.3385 98.2976 29.7408C98.2976 32.1031 97.8572 34.2051 96.9763 36.0469C96.1355 37.8887 95.0145 39.4302 93.6132 40.6714C92.2519 41.9126 90.7503 42.8535 89.1087 43.4941C87.4671 44.1347 85.8656 44.455 84.3041 44.455ZM84.3041 42.2329C86.266 42.2329 87.8076 41.6523 88.9286 40.4912C90.0898 39.3301 90.9105 37.8086 91.3909 35.9268C91.9114 34.0049 92.1717 31.9429 92.1717 29.7408C92.1717 27.6187 91.9114 25.6768 91.3909 23.9151C90.8704 22.1534 90.0296 20.732 88.8685 19.651C87.7074 18.57 86.1859 18.0294 84.3041 18.0294C82.3422 18.0294 80.7808 18.61 79.6196 19.7711C78.4585 20.8922 77.6377 22.3937 77.1572 24.2755C76.6768 26.1173 76.4365 28.1592 76.4365 30.4014C76.4365 32.4834 76.6768 34.4253 77.1572 36.2271C77.6778 38.0288 78.5185 39.4902 79.6796 40.6113C80.8407 41.6924 82.3822 42.2329 84.3041 42.2329Z" fill="#003A2B"/>
<path d="M102.624 43.9145C102.304 43.9145 102.064 43.7944 101.904 43.5542C101.743 43.2739 101.663 42.9936 101.663 42.7133C101.703 42.1128 101.843 41.7925 102.084 41.7524C102.364 41.6723 102.684 41.6323 103.045 41.6323C104.166 41.6323 104.926 41.4521 105.327 41.0918C105.767 40.6914 106.008 40.1709 106.048 39.5303C106.128 38.8896 106.168 38.229 106.168 37.5483V8.30005C106.168 7.57935 106.128 6.91871 106.048 6.31813C106.008 5.6775 105.787 5.17702 105.387 4.81667C104.987 4.41628 104.226 4.21609 103.105 4.21609C102.744 4.21609 102.404 4.17605 102.084 4.09597C101.803 3.97586 101.663 3.61551 101.663 3.01493C101.663 2.41434 101.984 2.05399 102.624 1.93388C104.466 1.65361 105.867 1.37334 106.828 1.09306C107.829 0.812786 108.59 0.572556 109.111 0.372359C109.631 0.172165 110.091 0.0520492 110.492 0.0120112C110.812 -0.0280268 111.072 0.0320322 111.273 0.192187C111.513 0.352342 111.633 0.672656 111.633 1.15312V28.5997C113.395 28.2393 114.836 27.4986 115.957 26.3775L121.002 21.2125C121.242 20.9322 121.503 20.632 121.783 20.3116C122.103 19.9913 122.283 19.691 122.323 19.4108C122.403 19.1305 122.243 18.9103 121.843 18.7501C121.442 18.59 120.682 18.5499 119.561 18.63C119.12 18.5499 118.88 18.1896 118.84 17.549C118.84 17.2287 118.92 16.9484 119.08 16.7082C119.28 16.4679 119.521 16.3478 119.801 16.3478C120.722 16.3878 121.823 16.4279 123.104 16.4679C124.425 16.508 125.526 16.528 126.407 16.528C127.088 16.528 127.749 16.508 128.389 16.4679C129.07 16.4279 129.75 16.3878 130.431 16.3478C130.751 16.3478 130.992 16.4679 131.152 16.7082C131.312 16.9484 131.392 17.2287 131.392 17.549C131.352 18.0695 131.232 18.3898 131.032 18.5099C130.872 18.59 130.651 18.63 130.371 18.63C128.81 18.63 127.548 18.9103 126.587 19.4708C125.627 20.0314 124.545 20.9322 123.344 22.1734L118.299 27.3385C118.78 27.9791 119.421 28.7598 120.221 29.6807C121.022 30.6016 121.863 31.5826 122.744 32.6236C123.665 33.6245 124.525 34.5855 125.326 35.5064C126.127 36.3872 126.768 37.1079 127.248 37.6685C128.409 38.9097 129.37 39.8706 130.131 40.5513C130.932 41.1919 131.913 41.5522 133.074 41.6323C133.394 41.6723 133.694 41.7324 133.975 41.8125C134.255 41.8525 134.395 42.1528 134.395 42.7133C134.395 42.9936 134.315 43.2739 134.155 43.5542C134.035 43.7944 133.794 43.9145 133.434 43.9145C132.874 43.8745 132.413 43.8344 132.053 43.7944C131.692 43.7944 131.292 43.7744 130.852 43.7343C130.411 43.7343 129.771 43.7343 128.93 43.7343C128.129 43.7343 126.968 43.7343 125.446 43.7343C124.045 42.2129 122.423 40.3911 120.582 38.269C118.78 36.147 116.978 34.0449 115.176 31.9629C114.776 31.5225 114.256 31.1221 113.615 30.7618C113.014 30.3614 112.354 30.2012 111.633 30.2813V37.5483C111.633 38.229 111.653 38.8896 111.693 39.5303C111.773 40.1709 112.013 40.6914 112.414 41.0918C112.854 41.4521 113.615 41.6323 114.696 41.6323C115.096 41.6323 115.417 41.6723 115.657 41.7524C115.937 41.7925 116.097 42.1128 116.137 42.7133C116.137 42.9936 116.057 43.2739 115.897 43.5542C115.737 43.7944 115.497 43.9145 115.176 43.9145C114.015 43.8344 112.934 43.7744 111.933 43.7343C110.932 43.7343 109.911 43.7343 108.87 43.7343C107.789 43.7343 106.768 43.7343 105.807 43.7343C104.846 43.7744 103.785 43.8344 102.624 43.9145Z" fill="#003A2B"/>
<path d="M162.151 44.9344C160.557 44.9074 159.004 44.6778 157.491 44.2456C156.005 43.8404 154.668 43.2056 153.48 42.3412C152.291 41.4498 151.346 40.3288 150.643 38.9781C149.941 37.6275 149.59 36.0203 149.59 34.1564C149.59 32.8868 149.833 31.6982 150.319 30.5907C150.832 29.4562 151.575 28.5108 152.548 27.7544C153.547 26.971 154.79 26.4578 156.275 26.2147V26.0931C155.384 25.4178 154.736 24.6885 154.33 23.9051C153.925 23.1218 153.723 22.2709 153.723 21.3524C153.723 19.5966 154.357 18.1785 155.627 17.098C156.924 15.9904 158.72 15.4367 161.016 15.4367C162.016 15.4367 162.947 15.5852 163.812 15.8824C164.676 16.1795 165.379 16.6387 165.919 17.26C166.486 17.8813 166.77 18.6782 166.77 19.6506C166.77 20.461 166.527 21.1904 166.04 21.8387C165.581 22.487 164.906 22.8111 164.014 22.8111C163.42 22.8111 162.961 22.6625 162.637 22.3654C162.313 22.0683 162.151 21.8522 162.151 21.7171C162.151 21.6631 162.259 21.555 162.475 21.3929C162.718 21.2039 162.947 20.9607 163.164 20.6636C163.38 20.3395 163.488 19.9478 163.488 19.4886C163.488 18.6782 163.204 18.0434 162.637 17.5842C162.07 17.125 161.381 16.8954 160.57 16.8954C159.193 16.8954 158.166 17.3141 157.491 18.1514C156.816 18.9618 156.478 19.9073 156.478 20.9878C156.478 22.9597 157.302 24.3913 158.95 25.2828H160.287C160.611 25.2828 160.867 25.3098 161.057 25.3638C161.273 25.4178 161.394 25.715 161.421 26.2552C161.421 26.4983 161.354 26.7279 161.219 26.944C161.111 27.1331 160.922 27.2277 160.651 27.2277H159.233C157.991 27.3357 156.978 27.7139 156.194 28.3622C155.411 28.9835 154.83 29.7533 154.452 30.6718C154.074 31.5902 153.885 32.5356 153.885 33.5081C153.885 35.2639 154.29 36.7901 155.1 38.0867C155.911 39.3833 157.032 40.3828 158.463 41.0851C159.922 41.7604 161.57 42.0981 163.407 42.0981C165.379 42.0981 167.175 41.6929 168.796 40.8825C170.443 40.0721 171.754 38.9511 172.726 37.5195C173.725 36.0608 174.225 34.413 174.225 32.5762C174.225 31.6037 174.036 30.6718 173.658 29.7804C173.307 28.8889 172.767 28.1596 172.037 27.5923C171.308 27.0251 170.416 26.7414 169.363 26.7414C168.931 26.7414 168.431 26.836 167.864 27.0251C167.323 27.2142 166.864 27.5113 166.486 27.9165C166.108 28.2947 165.932 28.7944 165.959 29.4157C165.986 29.7668 166.108 30.1045 166.324 30.4287C166.54 30.7258 166.878 30.9149 167.337 30.9959C167.796 31.0499 168.201 30.9959 168.553 30.8338C168.904 30.6718 169.174 30.4962 169.363 30.3071C169.579 30.118 169.714 30.0235 169.768 30.0235C169.903 30.0505 170.079 30.2531 170.295 30.6312C170.538 31.0094 170.619 31.4821 170.538 32.0494C170.43 32.7787 170.106 33.346 169.566 33.7512C169.052 34.1294 168.431 34.3185 167.702 34.3185C166.675 34.3185 165.851 33.9133 165.23 33.1029C164.609 32.2655 164.298 31.1985 164.298 29.9019C164.298 28.4973 164.555 27.3492 165.068 26.4578C165.608 25.5664 166.311 24.8641 167.175 24.3508C168.066 23.8376 169.052 23.4594 170.133 23.2163C171.213 22.9462 172.307 22.7436 173.415 22.6085C174.549 22.4735 175.63 22.3519 176.656 22.2438C177.683 22.1088 178.561 21.9197 179.29 21.6766C179.884 21.4605 180.384 21.1498 180.789 20.7446C181.194 20.3395 181.384 19.8802 181.356 19.367C181.329 19.0429 181.208 18.7592 180.992 18.5161C180.776 18.273 180.398 18.1109 179.857 18.0299C179.398 17.9759 178.993 18.0299 178.642 18.192C178.291 18.354 178.007 18.5296 177.791 18.7187C177.602 18.9078 177.48 19.0023 177.426 19.0023C177.318 18.9753 177.143 18.7727 176.899 18.3946C176.656 18.0164 176.575 17.5437 176.656 16.9764C176.764 16.2471 177.062 15.7068 177.548 15.3556C178.034 14.9775 178.588 14.7614 179.209 14.7073C179.857 14.6533 180.465 14.7479 181.032 14.991C181.762 15.3421 182.261 15.8824 182.532 16.6117C182.802 17.3141 182.923 18.0164 182.896 18.7187C182.869 20.2044 182.369 21.474 181.397 22.5275C180.452 23.581 179.195 24.3913 177.629 24.9586C176.089 25.4989 174.401 25.769 172.564 25.769C173.671 26.7144 174.522 27.7544 175.117 28.8889C175.738 30.0235 176.049 31.266 176.049 32.6167C176.049 35.1829 175.427 37.3979 174.185 39.2618C172.942 41.0986 171.267 42.5168 169.16 43.5162C167.08 44.4887 164.744 44.9614 162.151 44.9344Z" fill="#FE5C29"/>
<path d="M207.284 44.395C206.883 44.395 206.603 44.2548 206.443 43.9746C206.283 43.6943 206.202 43.394 206.202 43.0737C206.243 42.393 206.403 42.0127 206.683 41.9326C206.963 41.8525 207.304 41.8125 207.704 41.8125C208.985 41.8125 209.886 41.5923 210.407 41.1518C210.927 40.6714 211.247 40.0908 211.367 39.4101C211.528 38.6894 211.608 37.9487 211.608 37.188V8.54027H207.464C206.102 8.58031 205.041 8.88059 204.281 9.44113C203.52 9.96162 202.959 10.8024 202.599 11.9636C202.239 13.0846 201.918 14.5461 201.638 16.3478C201.598 16.7082 201.338 16.9884 200.857 17.1886C200.417 17.3488 199.976 17.4289 199.536 17.4289C199.256 17.4289 198.935 17.3288 198.575 17.1286C198.255 16.9284 198.095 16.6281 198.095 16.2277L198.275 7.7595C198.275 7.19896 198.435 6.8186 198.755 6.61841C199.076 6.41821 199.456 6.31812 199.896 6.31812H229.265C229.705 6.31812 230.066 6.41821 230.346 6.61841C230.666 6.8186 230.826 7.19896 230.826 7.7595L231.067 16.2277C231.067 16.6281 230.886 16.9284 230.526 17.1286C230.206 17.3288 229.885 17.4289 229.565 17.4289C229.165 17.4289 228.744 17.3488 228.304 17.1886C227.863 16.9884 227.603 16.7082 227.523 16.3478C227.243 14.5461 226.903 13.0846 226.502 11.9636C226.142 10.8024 225.581 9.96162 224.82 9.44113C224.1 8.88059 223.039 8.58031 221.637 8.54027H217.553V37.188C217.594 37.9487 217.674 38.6894 217.794 39.4101C217.914 40.0908 218.234 40.6714 218.755 41.1518C219.315 41.5923 220.216 41.8125 221.457 41.8125C221.858 41.8125 222.198 41.8525 222.478 41.9326C222.759 42.0127 222.919 42.393 222.959 43.0737C222.959 43.394 222.879 43.6943 222.718 43.9746C222.558 44.2548 222.278 44.395 221.878 44.395C220.596 44.3149 219.375 44.2548 218.214 44.2148C217.093 44.2148 215.952 44.2148 214.791 44.2148C212.388 44.2148 209.886 44.2749 207.284 44.395Z" fill="#003A2B"/>
<path d="M238.705 44.9355C236.262 44.9355 234.3 44.2348 232.819 42.8335C231.378 41.4321 230.657 39.7505 230.657 37.7886C230.657 35.7466 231.177 34.145 232.218 32.9839C233.299 31.8228 234.701 30.962 236.423 30.4014C238.184 29.8409 240.086 29.4605 242.128 29.2603C244.21 29.0601 246.232 28.9 248.194 28.7799V24.0353C248.194 22.1534 247.713 20.692 246.753 19.651C245.832 18.57 244.25 18.0294 242.008 18.0294C240.887 18.0294 239.826 18.3898 238.825 19.1105C237.864 19.8312 237.383 20.8722 237.383 22.2335C237.383 22.8741 237.544 23.4147 237.864 23.8551C238.184 24.2955 238.505 24.6358 238.825 24.8761C239.145 25.1163 239.305 25.2765 239.305 25.3565C239.305 25.5167 239.065 25.817 238.585 26.2574C238.144 26.6578 237.524 26.858 236.723 26.858C235.482 26.858 234.521 26.3975 233.84 25.4767C233.159 24.5558 232.819 23.5348 232.819 22.4137C232.819 20.8922 233.279 19.691 234.2 18.8102C235.161 17.9293 236.382 17.2887 237.864 16.8883C239.345 16.4879 240.847 16.2877 242.368 16.2877C244.17 16.2877 245.912 16.508 247.593 16.9484C249.315 17.3888 250.716 18.2296 251.797 19.4708C252.918 20.712 253.479 22.5738 253.479 25.0562V39.0498C253.519 39.4502 253.619 39.9307 253.779 40.4912C253.939 41.0517 254.24 41.5522 254.68 41.9927C255.161 42.393 255.801 42.5932 256.602 42.5932C256.882 42.5932 257.103 42.6533 257.263 42.7734C257.423 42.8535 257.503 43.1137 257.503 43.5542C257.503 43.9145 257.303 44.1948 256.902 44.395C256.502 44.5952 256.042 44.7353 255.521 44.8154C255 44.8955 254.56 44.9355 254.2 44.9355C252.718 44.9355 251.397 44.5151 250.236 43.6743C249.075 42.7934 248.394 41.5923 248.194 40.0708C247.313 41.6723 245.992 42.8935 244.23 43.7343C242.508 44.5351 240.667 44.9355 238.705 44.9355ZM240.627 41.6924C241.988 41.6924 243.229 41.352 244.35 40.6714C245.511 39.9907 246.432 39.0698 247.113 37.9087C247.834 36.7075 248.194 35.3862 248.194 33.9449V30.5215C244.07 30.8018 241.127 31.4624 239.365 32.5035C237.604 33.5445 236.723 35.2461 236.723 37.6084C236.723 40.331 238.024 41.6924 240.627 41.6924Z" fill="#003A2B"/>
<path d="M261.045 44.395C260.765 44.395 260.524 44.2749 260.324 44.0346C260.164 43.7544 260.084 43.4741 260.084 43.1938C260.124 42.5932 260.264 42.2729 260.504 42.2329C260.785 42.1528 261.105 42.1128 261.465 42.1128C262.586 42.1128 263.347 41.9326 263.748 41.5722C264.188 41.1719 264.428 40.6513 264.468 40.0107C264.548 39.3701 264.588 38.7095 264.588 38.0288V8.72046C264.588 7.99976 264.548 7.33912 264.468 6.73854C264.428 6.09791 264.208 5.59743 263.808 5.23708C263.407 4.83669 262.646 4.6365 261.525 4.6365C261.165 4.6365 260.825 4.59646 260.504 4.51638C260.224 4.39627 260.084 4.03592 260.084 3.43534C260.084 2.83475 260.404 2.4744 261.045 2.35429C262.887 2.07401 264.288 1.79374 265.249 1.51347C266.25 1.2332 267.011 0.992966 267.531 0.792766C268.052 0.592576 268.512 0.472456 268.913 0.432421C269.233 0.392383 269.493 0.452442 269.693 0.612596C269.934 0.772746 270.054 1.09306 270.054 1.57353V38.0288C270.054 38.7095 270.074 39.3701 270.114 40.0107C270.194 40.6513 270.434 41.1719 270.834 41.5722C271.275 41.9326 272.056 42.1128 273.177 42.1128C273.537 42.1128 273.837 42.1528 274.078 42.2329C274.358 42.2729 274.518 42.5932 274.558 43.1938C274.558 43.4741 274.478 43.7544 274.318 44.0346C274.158 44.2749 273.917 44.395 273.597 44.395C272.436 44.3149 271.355 44.2548 270.354 44.2148C269.393 44.2148 268.372 44.2148 267.291 44.2148C266.21 44.2148 265.189 44.2148 264.228 44.2148C263.267 44.2548 262.206 44.3149 261.045 44.395Z" fill="#003A2B"/>
<path d="M278.23 44.395C277.909 44.395 277.669 44.2749 277.509 44.0346C277.349 43.7544 277.269 43.4741 277.269 43.1938C277.309 42.5932 277.449 42.2729 277.689 42.2329C277.969 42.1528 278.29 42.1128 278.65 42.1128C279.771 42.1128 280.532 41.9326 280.932 41.5722C281.373 41.1719 281.613 40.6513 281.653 40.0107C281.733 39.3701 281.773 38.7095 281.773 38.0288V8.78051C281.773 8.05981 281.733 7.39917 281.653 6.79859C281.613 6.15797 281.393 5.65749 280.992 5.29714C280.592 4.89675 279.831 4.69656 278.71 4.69656C278.35 4.69656 278.009 4.65652 277.689 4.57644C277.409 4.45632 277.269 4.09597 277.269 3.49539C277.269 2.89481 277.589 2.53446 278.23 2.41435C280.071 2.13407 281.473 1.8538 282.434 1.57353C283.435 1.29326 284.195 1.05303 284.716 0.852829C285.236 0.652639 285.697 0.532519 286.097 0.492479C286.417 0.452443 286.678 0.512499 286.878 0.672659C287.118 0.832809 287.238 1.15312 287.238 1.63359V29.0801C289 28.7198 290.441 27.9791 291.562 26.858L296.607 21.693C296.848 21.4127 297.108 21.1124 297.388 20.7921C297.708 20.4718 297.889 20.1715 297.929 19.8912C298.009 19.611 297.849 19.3908 297.448 19.2306C297.048 19.0704 296.287 19.0304 295.166 19.1105C294.726 19.0304 294.485 18.6701 294.445 18.0294C294.445 17.7091 294.525 17.4289 294.685 17.1886C294.886 16.9484 295.126 16.8283 295.406 16.8283C296.327 16.8683 297.428 16.9083 298.709 16.9484C300.031 16.9884 301.132 17.0084 302.013 17.0084C302.693 17.0084 303.354 16.9884 303.994 16.9484C304.675 16.9083 305.356 16.8683 306.036 16.8283C306.357 16.8283 306.597 16.9484 306.757 17.1886C306.917 17.4289 306.997 17.7091 306.997 18.0294C306.957 18.5499 306.837 18.8702 306.637 18.9904C306.477 19.0704 306.257 19.1105 305.976 19.1105C304.415 19.1105 303.154 19.3908 302.193 19.9513C301.232 20.5118 300.151 21.4127 298.95 22.6539L293.905 27.8189C294.385 28.4595 295.026 29.2403 295.827 30.1612C296.627 31.0821 297.468 32.063 298.349 33.104C299.27 34.105 300.131 35.0659 300.932 35.9868C301.732 36.8677 302.373 37.5884 302.853 38.1489C304.015 39.3901 304.975 40.3511 305.736 41.0317C306.537 41.6723 307.518 42.0327 308.679 42.1128C308.999 42.1528 309.3 42.2129 309.58 42.2929C309.86 42.333 310 42.6333 310 43.1938C310 43.4741 309.92 43.7544 309.76 44.0346C309.64 44.2749 309.4 44.395 309.039 44.395C308.479 44.3549 308.018 44.3149 307.658 44.2749C307.298 44.2749 306.897 44.2548 306.457 44.2148C306.016 44.2148 305.376 44.2148 304.535 44.2148C303.734 44.2148 302.573 44.2148 301.052 44.2148C299.65 42.6933 298.029 40.8716 296.187 38.7495C294.385 36.6275 292.583 34.5254 290.782 32.4434C290.381 32.003 289.861 31.6026 289.22 31.2422C288.62 30.8418 287.959 30.6817 287.238 30.7618V38.0288C287.238 38.7095 287.258 39.3701 287.298 40.0107C287.378 40.6513 287.619 41.1719 288.019 41.5722C288.459 41.9326 289.22 42.1128 290.301 42.1128C290.702 42.1128 291.022 42.1528 291.262 42.2329C291.542 42.2729 291.703 42.5932 291.743 43.1938C291.743 43.4741 291.663 43.7544 291.502 44.0346C291.342 44.2749 291.102 44.395 290.782 44.395C289.621 44.3149 288.54 44.2548 287.539 44.2148C286.538 44.2148 285.517 44.2148 284.476 44.2148C283.395 44.2148 282.374 44.2148 281.413 44.2148C280.452 44.2548 279.391 44.3149 278.23 44.395Z" fill="#003A2B"/>
</svg>
